<svg width="31" height="30" viewBox="0 0 31 30" fill="none" xmlns="http://www.w3.org/2000/svg">
<circle cx="15.5349" cy="15" r="15" fill="#43BCCD"/>
<path d="M21.1599 8.25H19.4724V7.6875C19.4724 7.53832 19.4131 7.39524 19.3077 7.28975C19.2022 7.18426 19.0591 7.125 18.9099 7.125C18.7607 7.125 18.6177 7.18426 18.5122 7.28975C18.4067 7.39524 18.3474 7.53832 18.3474 7.6875V8.25H12.7224V7.6875C12.7224 7.53832 12.6631 7.39524 12.5577 7.28975C12.4522 7.18426 12.3091 7.125 12.1599 7.125C12.0107 7.125 11.8677 7.18426 11.7622 7.28975C11.6567 7.39524 11.5974 7.53832 11.5974 7.6875V8.25H9.90991C9.61154 8.25 9.3254 8.36853 9.11442 8.5795C8.90344 8.79048 8.78491 9.07663 8.78491 9.375V20.625C8.78491 20.9234 8.90344 21.2095 9.11442 21.4205C9.3254 21.6315 9.61154 21.75 9.90991 21.75H21.1599C21.4583 21.75 21.7444 21.6315 21.9554 21.4205C22.1664 21.2095 22.2849 20.9234 22.2849 20.625V9.375C22.2849 9.07663 22.1664 8.79048 21.9554 8.5795C21.7444 8.36853 21.4583 8.25 21.1599 8.25ZM11.5974 9.375V9.9375C11.5974 10.0867 11.6567 10.2298 11.7622 10.3352C11.8677 10.4407 12.0107 10.5 12.1599 10.5C12.3091 10.5 12.4522 10.4407 12.5577 10.3352C12.6631 10.2298 12.7224 10.0867 12.7224 9.9375V9.375H18.3474V9.9375C18.3474 10.0867 18.4067 10.2298 18.5122 10.3352C18.6177 10.4407 18.7607 10.5 18.9099 10.5C19.0591 10.5 19.2022 10.4407 19.3077 10.3352C19.4131 10.2298 19.4724 10.0867 19.4724 9.9375V9.375H21.1599V11.625H9.90991V9.375H11.5974ZM21.1599 20.625H9.90991V12.75H21.1599V20.625Z" fill="white"/>
</svg>
