<svg width="1422" height="333" viewBox="0 0 1422 333" fill="none" xmlns="http://www.w3.org/2000/svg">
<circle cx="18.3113" cy="18.3113" r="18.3113" fill="white"/>
<circle cx="60.2839" cy="18.3114" r="18.3113" fill="white"/>
<circle cx="1319.46" cy="18.3114" r="18.3113" fill="white"/>
<circle cx="1403.41" cy="18.3114" r="18.3113" fill="white"/>
<circle cx="18.3113" cy="55.2156" r="18.3113" fill="white"/>
<circle cx="60.2839" cy="55.2156" r="18.3113" fill="#43BCCD"/>
<circle cx="1361.44" cy="55.2156" r="18.3113" fill="white"/>
<circle cx="1403.41" cy="55.2156" r="18.3113" fill="white"/>
<circle cx="18.3113" cy="92.1199" r="18.3113" fill="#43BCCD"/>
<circle cx="60.2839" cy="92.1199" r="18.3113" fill="#43BCCD"/>
<circle cx="102.257" cy="92.1199" r="18.3113" fill="white"/>
<circle cx="1319.46" cy="92.1199" r="18.3113" fill="white"/>
<circle cx="1361.44" cy="92.1199" r="18.3113" fill="#43BCCD"/>
<circle cx="1403.41" cy="92.1199" r="18.3113" fill="white"/>
<circle cx="18.3113" cy="129.024" r="18.3113" fill="white"/>
<circle cx="60.2839" cy="129.024" r="18.3113" fill="#43BCCD"/>
<circle cx="102.257" cy="129.024" r="18.3113" fill="white"/>
<circle cx="1319.46" cy="129.024" r="18.3113" fill="white"/>
<circle cx="1361.44" cy="129.024" r="18.3113" fill="white"/>
<circle cx="1403.41" cy="129.024" r="18.3113" fill="white"/>
<circle cx="18.3113" cy="165.928" r="18.3113" fill="white"/>
<circle cx="60.2839" cy="165.928" r="18.3113" fill="white"/>
<circle cx="102.257" cy="165.928" r="18.3113" fill="white"/>
<circle cx="1319.46" cy="165.928" r="17.8113" stroke="#43BCCD"/>
<circle cx="1361.44" cy="165.928" r="18.3113" fill="white"/>
<circle cx="1403.41" cy="165.928" r="18.3113" fill="white"/>
<circle cx="18.3113" cy="202.833" r="18.3113" fill="white"/>
<circle cx="60.2839" cy="202.833" r="18.3113" fill="white"/>
<circle cx="102.257" cy="202.833" r="18.3113" fill="white"/>
<circle cx="144.229" cy="202.833" r="17.8113" stroke="#43BCCD"/>
<circle cx="144.311" cy="166.311" r="17.8113" stroke="#43BCCD"/>
<circle cx="186.202" cy="202.833" r="17.8113" stroke="#43BCCD"/>
<circle cx="228.175" cy="202.833" r="18.3113" fill="white"/>
<circle cx="270.147" cy="202.833" r="17.8113" stroke="#43BCCD"/>
<circle cx="270.311" cy="166.311" r="17.8113" stroke="#43BCCD"/>
<circle cx="312.12" cy="202.833" r="17.8113" stroke="#43BCCD"/>
<circle cx="354.092" cy="202.833" r="18.3113" fill="white"/>
<circle cx="396.065" cy="202.833" r="18.3113" fill="#43BCCD"/>
<circle cx="605.928" cy="202.833" r="18.3113" fill="white"/>
<circle cx="647.901" cy="202.833" r="18.3113" fill="white"/>
<circle cx="773.819" cy="202.833" r="18.3113" fill="white"/>
<circle cx="815.792" cy="202.833" r="18.3113" fill="white"/>
<circle cx="857.764" cy="202.833" r="18.3113" fill="white"/>
<circle cx="1025.66" cy="202.833" r="18.3113" fill="white"/>
<circle cx="1109.6" cy="202.833" r="18.3113" fill="white"/>
<circle cx="1151.57" cy="202.833" r="18.3113" fill="white"/>
<circle cx="1193.55" cy="202.833" r="18.3113" fill="white"/>
<circle cx="1235.52" cy="202.833" r="18.3113" fill="white"/>
<circle cx="1277.49" cy="202.833" r="18.3113" fill="white"/>
<circle cx="1319.46" cy="202.833" r="17.8113" stroke="#43BCCD"/>
<circle cx="1361.44" cy="202.833" r="17.8113" stroke="#43BCCD"/>
<circle cx="1403.41" cy="202.833" r="18.3113" fill="white"/>
<circle cx="18.3113" cy="239.737" r="18.3113" fill="white"/>
<circle cx="60.2839" cy="239.737" r="18.3113" fill="white"/>
<circle cx="102.257" cy="239.737" r="18.3113" fill="white"/>
<circle cx="144.229" cy="239.737" r="17.8113" stroke="#43BCCD"/>
<circle cx="186.202" cy="239.737" r="17.8113" stroke="#43BCCD"/>
<circle cx="228.175" cy="239.737" r="17.8113" stroke="#43BCCD"/>
<circle cx="270.147" cy="239.737" r="17.8113" stroke="#43BCCD"/>
<circle cx="312.12" cy="239.737" r="17.8113" stroke="#43BCCD"/>
<circle cx="354.092" cy="239.737" r="17.8113" stroke="#43BCCD"/>
<circle cx="521.983" cy="239.737" r="18.3113" fill="white"/>
<circle cx="563.956" cy="239.737" r="18.3113" fill="white"/>
<circle cx="647.901" cy="239.737" r="18.3113" fill="white"/>
<circle cx="689.874" cy="239.737" r="18.3113" fill="white"/>
<circle cx="773.819" cy="239.737" r="18.3113" fill="white"/>
<circle cx="815.792" cy="239.737" r="18.3113" fill="white"/>
<circle cx="941.71" cy="239.737" r="18.3113" fill="white"/>
<circle cx="983.683" cy="239.737" r="18.3113" fill="white"/>
<circle cx="1067.63" cy="239.737" r="18.3113" fill="white"/>
<circle cx="1109.6" cy="239.737" r="18.3113" fill="white"/>
<circle cx="1151.57" cy="239.737" r="18.3113" fill="white"/>
<circle cx="1193.55" cy="239.737" r="18.3113" fill="#43BCCD"/>
<circle cx="1235.52" cy="239.737" r="18.3113" fill="white"/>
<circle cx="1277.49" cy="239.737" r="18.3113" fill="white"/>
<circle cx="1319.46" cy="239.737" r="17.8113" stroke="#43BCCD"/>
<circle cx="1361.44" cy="239.737" r="17.8113" stroke="#43BCCD"/>
<circle cx="1403.41" cy="239.737" r="17.8113" stroke="#43BCCD"/>
<circle cx="18.3113" cy="276.641" r="18.3113" fill="white"/>
<circle cx="60.2839" cy="276.641" r="18.3113" fill="white"/>
<circle cx="102.257" cy="276.641" r="18.3113" fill="white"/>
<circle cx="144.229" cy="276.641" r="17.8113" stroke="#43BCCD"/>
<circle cx="186.202" cy="276.641" r="17.8113" stroke="#43BCCD"/>
<circle cx="228.175" cy="276.641" r="18.3113" fill="white"/>
<circle cx="270.147" cy="276.641" r="17.8113" stroke="#43BCCD"/>
<circle cx="312.12" cy="276.641" r="17.8113" stroke="#43BCCD"/>
<circle cx="354.092" cy="276.641" r="18.3113" fill="white"/>
<circle cx="396.065" cy="276.641" r="18.3113" fill="white"/>
<circle cx="480.01" cy="276.641" r="18.3113" fill="white"/>
<circle cx="521.983" cy="276.641" r="18.3113" fill="white"/>
<circle cx="563.956" cy="276.641" r="18.3113" fill="white"/>
<circle cx="605.928" cy="276.641" r="18.3113" fill="white"/>
<circle cx="647.901" cy="276.641" r="18.3113" fill="white"/>
<circle cx="689.874" cy="276.641" r="18.3113" fill="white"/>
<circle cx="731.846" cy="276.641" r="18.3113" fill="white"/>
<circle cx="773.819" cy="276.641" r="18.3113" fill="white"/>
<circle cx="815.792" cy="276.641" r="18.3113" fill="white"/>
<circle cx="857.764" cy="276.641" r="18.3113" fill="white"/>
<circle cx="941.71" cy="276.641" r="18.3113" fill="white"/>
<circle cx="983.683" cy="276.641" r="18.3113" fill="white"/>
<circle cx="1025.66" cy="276.641" r="18.3113" fill="white"/>
<circle cx="1067.63" cy="276.641" r="18.3113" fill="white"/>
<circle cx="1109.6" cy="276.641" r="18.3113" fill="white"/>
<circle cx="1151.57" cy="276.641" r="18.3113" fill="white"/>
<circle cx="1193.55" cy="276.641" r="18.3113" fill="#43BCCD"/>
<circle cx="1235.52" cy="276.641" r="18.3113" fill="#43BCCD"/>
<circle cx="1277.49" cy="276.641" r="18.3113" fill="white"/>
<circle cx="1319.46" cy="276.641" r="17.8113" stroke="#43BCCD"/>
<circle cx="1361.44" cy="276.641" r="17.8113" stroke="#43BCCD"/>
<circle cx="1403.41" cy="276.641" r="18.3113" fill="white"/>
<circle cx="18.3113" cy="313.545" r="18.3113" fill="#43BCCD"/>
<circle cx="60.2839" cy="313.545" r="18.3113" fill="white"/>
<circle cx="102.257" cy="313.545" r="18.3113" fill="white"/>
<circle cx="144.229" cy="313.545" r="17.8113" stroke="#43BCCD"/>
<circle cx="186.202" cy="313.545" r="18.3113" fill="white"/>
<circle cx="228.175" cy="313.545" r="18.3113" fill="white"/>
<circle cx="270.147" cy="313.545" r="17.8113" stroke="#43BCCD"/>
<circle cx="312.12" cy="313.545" r="18.3113" fill="white"/>
<circle cx="354.092" cy="313.545" r="18.3113" fill="white"/>
<circle cx="396.065" cy="313.545" r="18.3113" fill="white"/>
<circle cx="438.038" cy="313.545" r="18.3113" fill="white"/>
<circle cx="480.01" cy="313.545" r="18.3113" fill="white"/>
<circle cx="521.983" cy="313.545" r="18.3113" fill="white"/>
<circle cx="563.956" cy="313.545" r="18.3113" fill="white"/>
<circle cx="605.928" cy="313.545" r="18.3113" fill="white"/>
<circle cx="647.901" cy="313.545" r="18.3113" fill="white"/>
<circle cx="689.874" cy="313.545" r="18.3113" fill="white"/>
<circle cx="731.846" cy="313.545" r="18.3113" fill="white"/>
<circle cx="773.819" cy="313.545" r="18.3113" fill="white"/>
<circle cx="815.792" cy="313.545" r="18.3113" fill="white"/>
<circle cx="857.764" cy="313.545" r="18.3113" fill="white"/>
<circle cx="899.737" cy="313.545" r="18.3113" fill="white"/>
<circle cx="941.71" cy="313.545" r="18.3113" fill="white"/>
<circle cx="983.683" cy="313.545" r="18.3113" fill="white"/>
<circle cx="1025.66" cy="313.545" r="18.3113" fill="white"/>
<circle cx="1067.63" cy="313.545" r="18.3113" fill="white"/>
<circle cx="1109.6" cy="313.545" r="18.3113" fill="white"/>
<circle cx="1151.57" cy="313.545" r="18.3113" fill="#43BCCD"/>
<circle cx="1193.55" cy="313.545" r="18.3113" fill="#43BCCD"/>
<circle cx="1235.52" cy="313.545" r="18.3113" fill="white"/>
<circle cx="1277.49" cy="313.545" r="18.3113" fill="white"/>
<circle cx="1319.46" cy="313.545" r="17.8113" stroke="#43BCCD"/>
<circle cx="1361.44" cy="313.545" r="18.3113" fill="white"/>
<circle cx="1403.41" cy="313.545" r="18.3113" fill="white"/>
</svg>
