<svg width="1440" height="1310" viewBox="0 0 1440 1310" fill="none" xmlns="http://www.w3.org/2000/svg">
<circle cx="1198.5" cy="169.5" r="22" transform="rotate(90 1198.5 169.5)" stroke="#FF6F00" stroke-width="3"/>
<circle cx="926.5" cy="58.5" r="22" transform="rotate(90 926.5 58.5)" stroke="#FF6F00" stroke-width="3"/>
<circle cx="925.5" cy="105.5" r="22" transform="rotate(90 925.5 105.5)" stroke="#FF6F00" stroke-width="3"/>
<circle cx="1416.5" cy="166.5" r="23.5" transform="rotate(90 1416.5 166.5)" fill="#F5C174"/>
<circle cx="1416.5" cy="213.5" r="23.5" transform="rotate(90 1416.5 213.5)" fill="#F5C174"/>
<circle cx="879.5" cy="58.5" r="23.5" transform="rotate(90 879.5 58.5)" fill="#FF6F00"/>
<circle cx="1236.5" cy="134.5" r="23.5" transform="rotate(90 1236.5 134.5)" fill="#FF6F00"/>
<circle cx="1413.5" cy="23.5" r="23.5" transform="rotate(90 1413.5 23.5)" fill="#FF6F00"/>
<circle cx="1360.5" cy="23.5" r="23.5" transform="rotate(90 1360.5 23.5)" fill="#FF6F00"/>
<circle cx="1313.5" cy="23.5" r="23.5" transform="rotate(90 1313.5 23.5)" fill="#FF6F00"/>
</svg>
