<svg width="22" height="36" viewBox="0 0 22 36" fill="none" xmlns="http://www.w3.org/2000/svg">
<path d="M21.832 1.21977C21.832 0.9579 21.728 0.706753 21.5428 0.521581C21.3577 0.336409 21.1065 0.23238 20.8446 0.23238H15.9077C13.4217 0.108543 10.9877 0.973698 9.13755 2.63882C7.28742 4.30393 6.17155 6.63364 6.03374 9.11892V14.4508H1.09677C0.834895 14.4508 0.583748 14.5549 0.398576 14.74C0.213404 14.9252 0.109375 15.1764 0.109375 15.4382V20.5727C0.109375 20.8346 0.213404 21.0857 0.398576 21.2709C0.583748 21.456 0.834895 21.5601 1.09677 21.5601H6.03374V34.7912C6.03374 35.053 6.13776 35.3042 6.32294 35.4893C6.50811 35.6745 6.75926 35.7785 7.02113 35.7785H12.9455C13.2074 35.7785 13.4585 35.6745 13.6437 35.4893C13.8289 35.3042 13.9329 35.053 13.9329 34.7912V21.5601H19.1068C19.3264 21.5632 19.5408 21.4931 19.716 21.3608C19.8913 21.2284 20.0174 21.0415 20.0745 20.8294L21.4963 15.695C21.5356 15.5491 21.5409 15.3961 21.5118 15.2479C21.4826 15.0996 21.4199 14.96 21.3283 14.8398C21.2367 14.7196 21.1188 14.6221 20.9836 14.5546C20.8484 14.4872 20.6995 14.4517 20.5484 14.4508H13.9329V9.11892C13.982 8.63012 14.2116 8.17717 14.5767 7.84853C14.9419 7.51989 15.4164 7.33915 15.9077 7.34161H20.8446C21.1065 7.34161 21.3577 7.23758 21.5428 7.05241C21.728 6.86724 21.832 6.61609 21.832 6.35422V1.21977Z" fill="white"/>
</svg>