<svg xmlns="http://www.w3.org/2000/svg" width="482" height="610" viewBox="0 0 482 610" fill="none">
  <path d="M346.162 210.45L312.612 138.775L240.937 105.225L312.612 71.675L346.162 0L379.712 71.675L451.387 105.225L379.712 138.775L346.162 210.45ZM410.212 430.812L387.52 382.592L339.3 359.9L387.52 337.208L410.212 288.987L432.904 337.208L481.125 359.9L432.904 382.592L410.212 430.812ZM11.4246 610L3.79962 539.85C-3.31705 538.833 -10.6879 536.546 -18.3129 532.987C-25.9379 529.429 -32.5462 525.108 -38.1379 520.025L-97.6129 545.188L-164.713 435.387L-106.763 397.262C-109.305 388.621 -110.575 380.996 -110.575 374.387C-110.575 367.779 -109.305 360.154 -106.763 351.512L-164.713 313.387L-97.6129 203.587L-38.1379 228.75C-32.5462 223.667 -25.9379 219.346 -18.3129 215.787C-10.6879 212.229 -3.31705 209.942 3.79962 208.925L11.4818 138.775H139.525L147.15 208.925C154.266 209.942 161.637 212.229 169.262 215.787C176.887 219.346 183.495 223.667 189.087 228.75L248.562 203.587L315.662 313.387L257.712 351.512C260.254 360.154 261.525 367.779 261.525 374.387C261.525 380.996 260.254 388.621 257.712 397.262L315.662 435.387L248.562 545.188L189.087 520.025C183.495 525.108 176.887 529.429 169.262 532.987C161.637 536.546 154.266 538.833 147.15 539.85L139.467 610H11.4246ZM75.4746 462.075C100.891 462.075 121.86 453.815 138.381 437.294C154.902 420.773 163.162 399.804 163.162 374.387C163.162 348.971 154.902 328.002 138.381 311.481C121.86 294.96 100.891 286.7 75.4746 286.7C50.058 286.7 29.0892 294.96 12.5684 311.481C-3.95247 328.002 -12.2129 348.971 -12.2129 374.387C-12.2129 399.804 -3.95247 420.773 12.5684 437.294C29.0892 453.815 50.058 462.075 75.4746 462.075ZM75.4746 416.325C63.2746 416.325 53.235 412.385 45.3559 404.506C37.4767 396.627 33.5371 386.587 33.5371 374.387C33.5371 362.188 37.4767 352.148 45.3559 344.269C53.235 336.39 63.2746 332.45 75.4746 332.45C87.6746 332.45 97.7142 336.39 105.593 344.269C113.473 352.148 117.412 362.188 117.412 374.387C117.412 386.587 113.473 396.627 105.593 404.506C97.7142 412.385 87.6746 416.325 75.4746 416.325ZM49.5496 564.25H101.4L107.5 506.3C122.241 502.742 135.712 497.658 147.912 491.05C160.112 484.442 171.236 475.8 181.284 465.125L231.025 487.237L256.187 447.587L208.912 414.038C214.504 401.329 217.3 388.112 217.3 374.387C217.3 360.663 214.504 347.446 208.912 334.737L256.187 301.188L231.025 261.538L181.284 283.65C171.236 272.975 160.112 264.333 147.912 257.725C135.712 251.117 122.241 246.033 107.5 242.475L101.4 184.525H49.5496L43.4496 242.475C28.7079 246.033 15.2371 251.117 3.03712 257.725C-9.16289 264.333 -20.287 272.975 -30.3352 283.65L-80.0754 261.538L-105.238 301.188L-57.9629 334.737C-63.5546 347.446 -66.3504 360.663 -66.3504 374.387C-66.3504 388.112 -63.5546 401.329 -57.9629 414.038L-105.238 447.587L-80.0754 487.237L-30.3352 465.125C-20.287 475.8 -9.16289 484.442 3.03712 491.05C15.2371 497.658 28.7079 502.742 43.4496 506.3L49.5496 564.25Z" fill="black" fill-opacity="0.4"/>
</svg>