<svg width="36" height="36" viewBox="0 0 36 36" fill="none" xmlns="http://www.w3.org/2000/svg">
<path fill-rule="evenodd" clip-rule="evenodd" d="M10.4089 0.682653C12.2671 0.597479 12.8595 0.578125 17.5913 0.578125C22.3241 0.578125 22.9154 0.598445 24.7727 0.682653C26.6281 0.766862 27.8951 1.06206 29.0033 1.49275C30.1656 1.93036 31.2185 2.61602 32.0888 3.50202C32.9749 4.37219 33.6606 5.42517 34.0981 6.58754C34.5287 7.69573 34.823 8.96266 34.9082 10.8171C34.9934 12.6753 35.0127 13.2677 35.0127 17.9995C35.0127 22.7313 34.9924 23.3236 34.9082 25.182C34.8239 27.0363 34.5287 28.3033 34.0981 29.4115C33.6529 30.5565 33.0566 31.5291 32.0888 32.497C31.2186 33.3831 30.1656 34.0688 29.0033 34.5063C27.8951 34.9369 26.6281 35.2312 24.7738 35.3164C22.9154 35.4016 22.3231 35.4209 17.5913 35.4209C12.8595 35.4209 12.2671 35.4006 10.4089 35.3164C8.55445 35.2321 7.28752 34.9369 6.17933 34.5063C5.03435 34.0611 4.06167 33.4648 3.09382 32.497C2.20765 31.6268 1.52195 30.5738 1.08454 29.4115C0.653856 28.3033 0.359625 27.0363 0.27445 25.182C0.189275 23.3236 0.169922 22.7323 0.169922 17.9995C0.169922 13.2667 0.190242 12.6753 0.27445 10.818C0.358659 8.96266 0.653856 7.69573 1.08454 6.58754C1.52215 5.42525 2.20781 4.37231 3.09382 3.50202C3.96397 2.61586 5.01695 1.93015 6.17933 1.49275C7.28752 1.06206 8.55445 0.767828 10.4089 0.682653ZM24.6314 3.8185C22.7944 3.73526 22.2428 3.71687 17.5913 3.71687C12.9398 3.71687 12.3881 3.73526 10.5511 3.8185C8.85255 3.89593 7.93018 4.17951 7.31656 4.41857C6.50356 4.73409 5.92284 5.11155 5.3131 5.7213C4.70433 6.33105 4.32589 6.91177 4.01037 7.72476C3.7713 8.33839 3.48773 9.26075 3.4103 10.9593C3.32706 12.7963 3.30867 13.348 3.30867 17.9995C3.30867 22.651 3.32706 23.2026 3.4103 25.0397C3.48773 26.7382 3.7713 27.6606 4.01037 28.2743C4.28946 29.0311 4.73463 29.7156 5.3131 30.2778C5.87517 30.8562 6.55979 31.3014 7.31656 31.5804C7.93018 31.8196 8.85255 32.1031 10.5511 32.1805C12.3881 32.2638 12.9388 32.2822 17.5913 32.2822C22.2438 32.2822 22.7944 32.2638 24.6314 32.1805C26.33 32.1031 27.2524 31.8196 27.8661 31.5804C28.6791 31.2649 29.2598 30.8875 29.8696 30.2778C30.448 29.7157 30.8932 29.0311 31.1722 28.2743C31.4114 27.6606 31.6949 26.7382 31.7723 25.0397C31.8556 23.2026 31.874 22.651 31.874 17.9995C31.874 13.348 31.8556 12.7963 31.7723 10.9593C31.6949 9.26075 31.4114 8.33839 31.1722 7.72476C30.8567 6.91177 30.4793 6.33105 29.8696 5.7213C29.2598 5.11253 28.6791 4.73409 27.8661 4.41857C27.2524 4.17951 26.33 3.89593 24.6314 3.8185ZM15.3669 23.3699C16.0722 23.6621 16.8279 23.8124 17.5913 23.8124C19.1331 23.8124 20.6115 23.2 21.7016 22.1098C22.7919 21.0197 23.4044 19.5411 23.4044 17.9995C23.4044 16.4579 22.7919 14.9793 21.7016 13.8891C20.6115 12.799 19.1331 12.1866 17.5913 12.1866C16.8279 12.1866 16.0722 12.3369 15.3669 12.6291C14.6615 12.9212 14.0208 13.3493 13.481 13.8891C12.9412 14.4289 12.513 15.0697 12.2209 15.775C11.9288 16.4802 11.7784 17.2361 11.7784 17.9995C11.7784 18.7629 11.9288 19.5188 12.2209 20.2241C12.513 20.9293 12.9412 21.5701 13.481 22.1098C14.0208 22.6496 14.6615 23.0778 15.3669 23.3699ZM11.2595 11.6676C12.9388 9.98833 15.2165 9.0449 17.5913 9.0449C19.9663 9.0449 22.2439 9.98833 23.9232 11.6676C25.6025 13.347 26.5459 15.6247 26.5459 17.9995C26.5459 20.3744 25.6025 22.652 23.9232 24.3314C22.2439 26.0107 19.9663 26.9541 17.5913 26.9541C15.2165 26.9541 12.9388 26.0107 11.2595 24.3314C9.5802 22.652 8.63676 20.3744 8.63676 17.9995C8.63676 15.6247 9.5802 13.347 11.2595 11.6676ZM28.5315 10.379C28.9284 9.98208 29.1514 9.44369 29.1514 8.88231C29.1514 8.32092 28.9284 7.78253 28.5315 7.38558C28.1344 6.98862 27.5961 6.76561 27.0347 6.76561C26.4734 6.76561 25.9349 6.98862 25.538 7.38558C25.1409 7.78253 24.918 8.32092 24.918 8.88231C24.918 9.44369 25.1409 9.98208 25.538 10.379C25.9349 10.776 26.4734 10.999 27.0347 10.999C27.5961 10.999 28.1344 10.776 28.5315 10.379Z" fill="white"/>
</svg>
