<svg width="37" height="36" viewBox="0 0 37 36" fill="none" xmlns="http://www.w3.org/2000/svg">
<path d="M8.22636 36H0.762625V11.9646H8.22636V36ZM4.49048 8.686C2.10382 8.686 0.167969 6.70917 0.167969 4.32251C0.167969 3.17611 0.623374 2.07666 1.434 1.26603C2.24463 0.455406 3.34408 0 4.49048 0C5.63688 0 6.73632 0.455406 7.54695 1.26603C8.35758 2.07666 8.81298 3.17611 8.81298 4.32251C8.81298 6.70917 6.87633 8.686 4.49048 8.686ZM36.1607 36H28.7131V24.2997C28.7131 21.5113 28.6568 17.9353 24.8325 17.9353C20.952 17.9353 20.3573 20.9648 20.3573 24.0988V36H12.9016V11.9646H20.06V15.2433H20.1645C21.1609 13.3549 23.595 11.3619 27.2264 11.3619C34.7802 11.3619 36.1688 16.3362 36.1688 22.797V36H36.1607Z" fill="white"/>
</svg>