<svg width="353" height="78" viewBox="0 0 353 78" fill="none" xmlns="http://www.w3.org/2000/svg">
<path d="M29.375 52H25.098L7.896 25.915V52H3.619V19.194H7.896L25.098 45.232V19.194H29.375V52ZM77.8379 19.241L68.3439 52H63.5499L55.9359 25.633L48.0399 52L43.2929 52.047L34.1279 19.241H38.6869L45.8309 47.018L53.7269 19.241H58.5209L66.0409 46.924L73.2319 19.241H77.8379ZM101.036 19.241V22.719H86.7954V33.764H98.3574V37.242H86.7954V52H82.5184V19.241H101.036ZM129.119 52.329C126.957 52.329 125.015 51.953 123.291 51.201C121.599 50.4177 120.268 49.3523 119.296 48.005C118.325 46.6263 117.824 45.044 117.792 43.258H122.351C122.508 44.7933 123.135 46.0937 124.231 47.159C125.359 48.193 126.989 48.71 129.119 48.71C131.156 48.71 132.754 48.2087 133.913 47.206C135.104 46.172 135.699 44.856 135.699 43.258C135.699 42.0047 135.355 40.9863 134.665 40.203C133.976 39.4197 133.114 38.8243 132.08 38.417C131.046 38.0097 129.652 37.571 127.897 37.101C125.735 36.537 123.996 35.973 122.68 35.409C121.396 34.845 120.283 33.9677 119.343 32.777C118.435 31.555 117.98 29.9257 117.98 27.889C117.98 26.103 118.435 24.5207 119.343 23.142C120.252 21.7633 121.521 20.698 123.15 19.946C124.811 19.194 126.707 18.818 128.837 18.818C131.908 18.818 134.415 19.5857 136.357 21.121C138.331 22.6563 139.444 24.693 139.694 27.231H134.994C134.838 25.9777 134.18 24.881 133.02 23.941C131.861 22.9697 130.326 22.484 128.414 22.484C126.628 22.484 125.171 22.954 124.043 23.894C122.915 24.8027 122.351 26.0873 122.351 27.748C122.351 28.9387 122.68 29.91 123.338 30.662C124.028 31.414 124.858 31.9937 125.829 32.401C126.832 32.777 128.226 33.2157 130.012 33.717C132.174 34.3123 133.913 34.9077 135.229 35.503C136.545 36.067 137.673 36.96 138.613 38.182C139.553 39.3727 140.023 41.002 140.023 43.07C140.023 44.668 139.6 46.172 138.754 47.582C137.908 48.992 136.655 50.1357 134.994 51.013C133.334 51.8903 131.375 52.329 129.119 52.329ZM151.534 29.769V44.95C151.534 46.2033 151.801 47.0963 152.333 47.629C152.866 48.1303 153.79 48.381 155.106 48.381H158.255V52H154.401C152.02 52 150.234 51.4517 149.043 50.355C147.853 49.2583 147.257 47.4567 147.257 44.95V29.769H143.92V26.244H147.257V19.758H151.534V26.244H158.255V29.769H151.534ZM167.714 30.427C168.466 28.9543 169.532 27.8107 170.91 26.996C172.32 26.1813 174.028 25.774 176.033 25.774V30.192H174.905C170.111 30.192 167.714 32.7927 167.714 37.994V52H163.437V26.244H167.714V30.427ZM179.373 39.028C179.373 36.396 179.905 34.093 180.971 32.119C182.036 30.1137 183.493 28.5627 185.342 27.466C187.222 26.3693 189.305 25.821 191.593 25.821C193.849 25.821 195.807 26.3067 197.468 27.278C199.128 28.2493 200.366 29.4713 201.181 30.944V26.244H205.505V52H201.181V47.206C200.335 48.71 199.066 49.9633 197.374 50.966C195.713 51.9373 193.77 52.423 191.546 52.423C189.258 52.423 187.19 51.859 185.342 50.731C183.493 49.603 182.036 48.0207 180.971 45.984C179.905 43.9473 179.373 41.6287 179.373 39.028ZM201.181 39.075C201.181 37.1323 200.789 35.4403 200.006 33.999C199.222 32.5577 198.157 31.461 196.81 30.709C195.494 29.9257 194.037 29.534 192.439 29.534C190.841 29.534 189.384 29.91 188.068 30.662C186.752 31.414 185.702 32.5107 184.919 33.952C184.135 35.3933 183.744 37.0853 183.744 39.028C183.744 41.002 184.135 42.7253 184.919 44.198C185.702 45.6393 186.752 46.7517 188.068 47.535C189.384 48.287 190.841 48.663 192.439 48.663C194.037 48.663 195.494 48.287 196.81 47.535C198.157 46.7517 199.222 45.6393 200.006 44.198C200.789 42.7253 201.181 41.0177 201.181 39.075ZM217.949 29.769V44.95C217.949 46.2033 218.216 47.0963 218.748 47.629C219.281 48.1303 220.205 48.381 221.521 48.381H224.67V52H220.816C218.435 52 216.649 51.4517 215.458 50.355C214.268 49.2583 213.672 47.4567 213.672 44.95V29.769H210.335V26.244H213.672V19.758H217.949V26.244H224.67V29.769H217.949ZM253.352 38.135C253.352 38.9497 253.305 39.8113 253.211 40.72H232.625C232.782 43.258 233.644 45.2477 235.21 46.689C236.808 48.099 238.735 48.804 240.991 48.804C242.84 48.804 244.375 48.381 245.597 47.535C246.851 46.6577 247.728 45.4983 248.229 44.057H252.835C252.146 46.5323 250.767 48.5533 248.699 50.12C246.631 51.6553 244.062 52.423 240.991 52.423C238.547 52.423 236.354 51.8747 234.411 50.778C232.5 49.6813 230.996 48.1303 229.899 46.125C228.803 44.0883 228.254 41.7383 228.254 39.075C228.254 36.4117 228.787 34.0773 229.852 32.072C230.918 30.0667 232.406 28.5313 234.317 27.466C236.26 26.3693 238.485 25.821 240.991 25.821C243.435 25.821 245.597 26.3537 247.477 27.419C249.357 28.4843 250.799 29.957 251.801 31.837C252.835 33.6857 253.352 35.785 253.352 38.135ZM248.934 37.242C248.934 35.6127 248.574 34.2183 247.853 33.059C247.133 31.8683 246.146 30.9753 244.892 30.38C243.67 29.7533 242.307 29.44 240.803 29.44C238.641 29.44 236.793 30.1293 235.257 31.508C233.753 32.8867 232.892 34.798 232.672 37.242H248.934ZM269.62 25.821C271.845 25.821 273.787 26.3067 275.448 27.278C277.14 28.2493 278.393 29.4713 279.208 30.944V26.244H283.532V52.564C283.532 54.914 283.031 56.9977 282.028 58.815C281.025 60.6637 279.584 62.105 277.704 63.139C275.855 64.173 273.693 64.69 271.218 64.69C267.834 64.69 265.014 63.891 262.758 62.293C260.502 60.695 259.17 58.5173 258.763 55.76H262.993C263.463 57.3267 264.434 58.58 265.907 59.52C267.38 60.4913 269.15 60.977 271.218 60.977C273.568 60.977 275.479 60.2407 276.952 58.768C278.456 57.2953 279.208 55.2273 279.208 52.564V47.159C278.362 48.663 277.109 49.9163 275.448 50.919C273.787 51.9217 271.845 52.423 269.62 52.423C267.333 52.423 265.249 51.859 263.369 50.731C261.52 49.603 260.063 48.0207 258.998 45.984C257.933 43.9473 257.4 41.6287 257.4 39.028C257.4 36.396 257.933 34.093 258.998 32.119C260.063 30.1137 261.52 28.5627 263.369 27.466C265.249 26.3693 267.333 25.821 269.62 25.821ZM279.208 39.075C279.208 37.1323 278.816 35.4403 278.033 33.999C277.25 32.5577 276.184 31.461 274.837 30.709C273.521 29.9257 272.064 29.534 270.466 29.534C268.868 29.534 267.411 29.91 266.095 30.662C264.779 31.414 263.729 32.5107 262.946 33.952C262.163 35.3933 261.771 37.0853 261.771 39.028C261.771 41.002 262.163 42.7253 262.946 44.198C263.729 45.6393 264.779 46.7517 266.095 47.535C267.411 48.287 268.868 48.663 270.466 48.663C272.064 48.663 273.521 48.287 274.837 47.535C276.184 46.7517 277.25 45.6393 278.033 44.198C278.816 42.7253 279.208 41.0177 279.208 39.075ZM292.969 22.061C292.154 22.061 291.465 21.779 290.901 21.215C290.337 20.651 290.055 19.9617 290.055 19.147C290.055 18.3323 290.337 17.643 290.901 17.079C291.465 16.515 292.154 16.233 292.969 16.233C293.752 16.233 294.41 16.515 294.943 17.079C295.507 17.643 295.789 18.3323 295.789 19.147C295.789 19.9617 295.507 20.651 294.943 21.215C294.41 21.779 293.752 22.061 292.969 22.061ZM295.037 26.244V52H290.76V26.244H295.037ZM325.826 38.135C325.826 38.9497 325.779 39.8113 325.685 40.72H305.099C305.256 43.258 306.117 45.2477 307.684 46.689C309.282 48.099 311.209 48.804 313.465 48.804C315.314 48.804 316.849 48.381 318.071 47.535C319.324 46.6577 320.202 45.4983 320.703 44.057H325.309C324.62 46.5323 323.241 48.5533 321.173 50.12C319.105 51.6553 316.536 52.423 313.465 52.423C311.021 52.423 308.828 51.8747 306.885 50.778C304.974 49.6813 303.47 48.1303 302.373 46.125C301.276 44.0883 300.728 41.7383 300.728 39.075C300.728 36.4117 301.261 34.0773 302.326 32.072C303.391 30.0667 304.88 28.5313 306.791 27.466C308.734 26.3693 310.958 25.821 313.465 25.821C315.909 25.821 318.071 26.3537 319.951 27.419C321.831 28.4843 323.272 29.957 324.275 31.837C325.309 33.6857 325.826 35.785 325.826 38.135ZM321.408 37.242C321.408 35.6127 321.048 34.2183 320.327 33.059C319.606 31.8683 318.619 30.9753 317.366 30.38C316.144 29.7533 314.781 29.44 313.277 29.44C311.115 29.44 309.266 30.1293 307.731 31.508C306.227 32.8867 305.365 34.798 305.146 37.242H321.408ZM340.59 52.423C338.616 52.423 336.845 52.094 335.279 51.436C333.712 50.7467 332.474 49.8067 331.566 48.616C330.657 47.394 330.156 45.9997 330.062 44.433H334.48C334.605 45.7177 335.2 46.7673 336.266 47.582C337.362 48.3967 338.788 48.804 340.543 48.804C342.172 48.804 343.457 48.4437 344.397 47.723C345.337 47.0023 345.807 46.0937 345.807 44.997C345.807 43.869 345.305 43.0387 344.303 42.506C343.3 41.942 341.749 41.3937 339.65 40.861C337.738 40.3597 336.172 39.8583 334.95 39.357C333.759 38.8243 332.725 38.0567 331.848 37.054C331.002 36.02 330.579 34.6727 330.579 33.012C330.579 31.696 330.97 30.4897 331.754 29.393C332.537 28.2963 333.649 27.4347 335.091 26.808C336.532 26.15 338.177 25.821 340.026 25.821C342.877 25.821 345.18 26.5417 346.935 27.983C348.689 29.4243 349.629 31.3983 349.755 33.905H345.478C345.384 32.5577 344.835 31.4767 343.833 30.662C342.861 29.8473 341.545 29.44 339.885 29.44C338.349 29.44 337.127 29.769 336.219 30.427C335.31 31.085 334.856 31.9467 334.856 33.012C334.856 33.858 335.122 34.563 335.655 35.127C336.219 35.6597 336.908 36.0983 337.723 36.443C338.569 36.7563 339.728 37.1167 341.201 37.524C343.049 38.0253 344.553 38.5267 345.713 39.028C346.872 39.498 347.859 40.2187 348.674 41.19C349.52 42.1613 349.958 43.4303 349.99 44.997C349.99 46.407 349.598 47.676 348.815 48.804C348.031 49.932 346.919 50.825 345.478 51.483C344.068 52.1097 342.438 52.423 340.59 52.423Z" fill="white"/>
</svg>
