<svg xmlns="http://www.w3.org/2000/svg" width="60" height="47" viewBox="0 0 60 47" fill="none">
  <path d="M57.2077 0H2.28831C1.68141 0 1.09937 0.24676 0.67023 0.685995C0.241089 1.12523 0 1.72096 0 2.34213V42.1584C0 43.4007 0.482178 44.5922 1.34046 45.4706C2.19874 46.3491 3.36282 46.8426 4.57662 46.8426H54.9194C56.1332 46.8426 57.2973 46.3491 58.1556 45.4706C59.0138 44.5922 59.496 43.4007 59.496 42.1584V2.34213C59.496 1.72096 59.2549 1.12523 58.8258 0.685995C58.3967 0.24676 57.8146 0 57.2077 0ZM51.3239 4.68426L29.748 24.9291L8.17212 4.68426H51.3239ZM54.9194 42.1584H4.57662V7.66755L28.2005 29.8329C28.6227 30.2296 29.1749 30.4496 29.748 30.4496C30.3211 30.4496 30.8733 30.2296 31.2955 29.8329L54.9194 7.66755V42.1584Z" fill="#43BCCD"/>
</svg>