<svg width="38" height="31" viewBox="0 0 38 31" fill="none" xmlns="http://www.w3.org/2000/svg">
<path d="M31.8727 0.5H5.62546C2.51897 0.5 0 3.01897 0 6.12546V24.8745C0 27.981 2.51897 30.5 5.62546 30.5H31.8727C34.9792 30.5 37.4982 27.981 37.4982 24.8745V6.11811C37.4982 3.01163 34.9792 0.5 31.8727 0.5ZM31.1089 4.24541L20.0783 15.2687C19.3513 16.0031 18.1616 16.0104 17.4272 15.276L17.4198 15.2687L6.38923 4.24541H31.1089ZM33.7528 24.8745C33.7528 25.91 32.9155 26.7472 31.88 26.7472H5.62546C4.58996 26.7472 3.75275 25.91 3.75275 24.8745V6.88923L14.776 17.9125C16.9718 20.1083 20.5263 20.1083 22.7295 17.9125L33.7528 6.88923V24.8745Z" fill="#D9D9D9" fill-opacity="0.6"/>
</svg>
