<svg width="324" height="42" viewBox="0 0 324 42" fill="none" xmlns="http://www.w3.org/2000/svg">
<path d="M0.163086 0.139648L35.4157 20.6513L0.163086 41.1629V0.139648Z" fill="white"/>
<path d="M34.3988 0.139648L69.6515 20.6513L34.3988 41.1629V0.139648Z" fill="white"/>
<path d="M123.04 30.1514H118.315L110.414 18.1885V30.1514H105.689V10.7566H110.414L118.315 22.7747V10.7566H123.04V30.1514ZM153.362 10.7566L148.306 30.1514H142.587L139.493 17.3873L136.288 30.1514H130.569L125.651 10.7566H130.707L133.498 24.8744L136.951 10.7566H142.145L145.461 24.8744L148.279 10.7566H153.362ZM168.567 10.7566V14.5416H160.665V18.6305H166.578V22.305H160.665V30.1514H155.941V10.7566H168.567ZM184.341 30.3448C182.922 30.3448 181.652 30.1145 180.528 29.6541C179.405 29.1936 178.502 28.5121 177.821 27.6096C177.157 26.7071 176.807 25.6204 176.771 24.3495H181.799C181.873 25.0678 182.121 25.6204 182.545 26.0072C182.969 26.3756 183.521 26.5597 184.203 26.5597C184.902 26.5597 185.455 26.4032 185.86 26.0901C186.265 25.7585 186.468 25.3073 186.468 24.7363C186.468 24.2574 186.302 23.8614 185.971 23.5483C185.658 23.2352 185.262 22.9773 184.783 22.7747C184.322 22.5721 183.659 22.3419 182.794 22.084C181.541 21.6972 180.519 21.3104 179.727 20.9236C178.935 20.5369 178.253 19.9659 177.682 19.2107C177.111 18.4556 176.826 17.4702 176.826 16.2545C176.826 14.4495 177.48 13.0405 178.787 12.0275C180.095 10.996 181.799 10.4803 183.899 10.4803C186.035 10.4803 187.757 10.996 189.065 12.0275C190.373 13.0405 191.073 14.4587 191.165 16.2822H186.054C186.017 15.6559 185.787 15.1678 185.363 14.8179C184.939 14.4495 184.396 14.2653 183.733 14.2653C183.162 14.2653 182.701 14.4219 182.351 14.735C182.002 15.0297 181.827 15.4625 181.827 16.0335C181.827 16.6597 182.121 17.1478 182.711 17.4978C183.3 17.8477 184.221 18.2253 185.473 18.6305C186.726 19.0542 187.739 19.4594 188.513 19.8462C189.305 20.2329 189.986 20.7947 190.557 21.5315C191.128 22.2682 191.413 23.2168 191.413 24.3771C191.413 25.4823 191.128 26.4861 190.557 27.3886C190.004 28.2911 189.194 29.0094 188.126 29.5436C187.057 30.0777 185.796 30.3448 184.341 30.3448ZM203.122 26.1453V30.1514H200.719C199.006 30.1514 197.671 29.7369 196.713 28.9081C195.755 28.0609 195.276 26.6887 195.276 24.7916V18.6582H193.397V14.735H195.276V10.9776H200V14.735H203.095V18.6582H200V24.8468C200 25.3073 200.111 25.6388 200.332 25.8414C200.553 26.044 200.921 26.1453 201.437 26.1453H203.122ZM210.688 17.3044C211.24 16.4571 211.931 15.7941 212.76 15.3152C213.589 14.8179 214.51 14.5692 215.523 14.5692V19.5699H214.224C213.045 19.5699 212.161 19.8277 211.572 20.3435C210.982 20.8408 210.688 21.7249 210.688 22.9957V30.1514H205.963V14.735H210.688V17.3044ZM217.051 22.4156C217.051 20.8316 217.345 19.4409 217.935 18.2437C218.543 17.0465 219.362 16.1256 220.394 15.4809C221.425 14.8363 222.576 14.514 223.847 14.514C224.934 14.514 225.882 14.735 226.693 15.177C227.522 15.6191 228.157 16.1993 228.599 16.9176V14.735H233.323V30.1514H228.599V27.9688C228.139 28.6871 227.494 29.2673 226.665 29.7093C225.855 30.1514 224.906 30.3724 223.819 30.3724C222.567 30.3724 221.425 30.0501 220.394 29.4054C219.362 28.7423 218.543 27.8122 217.935 26.615C217.345 25.3994 217.051 23.9996 217.051 22.4156ZM228.599 22.4432C228.599 21.2644 228.268 20.3343 227.605 19.6528C226.96 18.9713 226.168 18.6305 225.229 18.6305C224.289 18.6305 223.488 18.9713 222.825 19.6528C222.18 20.3158 221.858 21.2368 221.858 22.4156C221.858 23.5943 222.18 24.5337 222.825 25.2336C223.488 25.9151 224.289 26.2558 225.229 26.2558C226.168 26.2558 226.96 25.9151 227.605 25.2336C228.268 24.5521 228.599 23.622 228.599 22.4432ZM245.543 26.1453V30.1514H243.139C241.426 30.1514 240.091 29.7369 239.133 28.9081C238.175 28.0609 237.697 26.6887 237.697 24.7916V18.6582H235.818V14.735H237.697V10.9776H242.421V14.735H245.515V18.6582H242.421V24.8468C242.421 25.3073 242.531 25.6388 242.753 25.8414C242.974 26.044 243.342 26.1453 243.858 26.1453H245.543ZM262.916 22.1945C262.916 22.6366 262.888 23.097 262.833 23.5759H252.141C252.215 24.5337 252.519 25.2704 253.053 25.7862C253.605 26.2835 254.278 26.5321 255.07 26.5321C256.249 26.5321 257.068 26.0348 257.529 25.0402H262.557C262.299 26.0532 261.829 26.9649 261.148 27.7754C260.485 28.5858 259.647 29.2212 258.634 29.6817C257.621 30.1422 256.488 30.3724 255.236 30.3724C253.725 30.3724 252.381 30.0501 251.202 29.4054C250.023 28.7608 249.102 27.8398 248.439 26.6426C247.776 25.4454 247.444 24.0456 247.444 22.4432C247.444 20.8408 247.767 19.4409 248.411 18.2437C249.074 17.0465 249.995 16.1256 251.174 15.4809C252.353 14.8363 253.707 14.514 255.236 14.514C256.727 14.514 258.054 14.8271 259.214 15.4533C260.374 16.0796 261.277 16.9729 261.921 18.1332C262.585 19.2936 262.916 20.6474 262.916 22.1945ZM258.081 20.9513C258.081 20.1409 257.805 19.4962 257.252 19.0173C256.7 18.5384 256.009 18.299 255.18 18.299C254.388 18.299 253.716 18.5292 253.163 18.9897C252.629 19.4502 252.298 20.104 252.169 20.9513H258.081ZM271.475 14.514C272.562 14.514 273.51 14.735 274.321 15.177C275.149 15.6191 275.785 16.1993 276.227 16.9176V14.735H280.951V30.1237C280.951 31.542 280.666 32.8221 280.095 33.964C279.542 35.1244 278.686 36.0453 277.525 36.7268C276.383 37.4083 274.956 37.749 273.243 37.749C270.959 37.749 269.108 37.2057 267.69 36.119C266.272 35.0507 265.461 33.5956 265.259 31.7538H269.928C270.075 32.3432 270.425 32.8036 270.978 33.1352C271.53 33.4851 272.212 33.6601 273.022 33.6601C273.998 33.6601 274.772 33.3746 275.343 32.8036C275.932 32.2511 276.227 31.3578 276.227 30.1237V27.9411C275.766 28.6595 275.131 29.2489 274.321 29.7093C273.51 30.1514 272.562 30.3724 271.475 30.3724C270.204 30.3724 269.053 30.0501 268.021 29.4054C266.99 28.7423 266.17 27.8122 265.562 26.615C264.973 25.3994 264.678 23.9996 264.678 22.4156C264.678 20.8316 264.973 19.4409 265.562 18.2437C266.17 17.0465 266.99 16.1256 268.021 15.4809C269.053 14.8363 270.204 14.514 271.475 14.514ZM276.227 22.4432C276.227 21.2644 275.895 20.3343 275.232 19.6528C274.588 18.9713 273.796 18.6305 272.856 18.6305C271.917 18.6305 271.116 18.9713 270.453 19.6528C269.808 20.3158 269.486 21.2368 269.486 22.4156C269.486 23.5943 269.808 24.5337 270.453 25.2336C271.116 25.9151 271.917 26.2558 272.856 26.2558C273.796 26.2558 274.588 25.9151 275.232 25.2336C275.895 24.5521 276.227 23.622 276.227 22.4432ZM286.954 13.1326C286.126 13.1326 285.444 12.8931 284.91 12.4143C284.394 11.9169 284.136 11.3091 284.136 10.5908C284.136 9.85406 284.394 9.24625 284.91 8.76737C285.444 8.27006 286.126 8.02141 286.954 8.02141C287.765 8.02141 288.428 8.27006 288.944 8.76737C289.478 9.24625 289.745 9.85406 289.745 10.5908C289.745 11.3091 289.478 11.9169 288.944 12.4143C288.428 12.8931 287.765 13.1326 286.954 13.1326ZM289.303 14.735V30.1514H284.578V14.735H289.303ZM307.468 22.1945C307.468 22.6366 307.44 23.097 307.385 23.5759H296.693C296.767 24.5337 297.071 25.2704 297.605 25.7862C298.157 26.2835 298.83 26.5321 299.622 26.5321C300.801 26.5321 301.62 26.0348 302.081 25.0402H307.109C306.851 26.0532 306.381 26.9649 305.7 27.7754C305.037 28.5858 304.199 29.2212 303.186 29.6817C302.173 30.1422 301.04 30.3724 299.787 30.3724C298.277 30.3724 296.933 30.0501 295.754 29.4054C294.575 28.7608 293.654 27.8398 292.991 26.6426C292.328 25.4454 291.996 24.0456 291.996 22.4432C291.996 20.8408 292.319 19.4409 292.963 18.2437C293.626 17.0465 294.547 16.1256 295.726 15.4809C296.905 14.8363 298.259 14.514 299.787 14.514C301.279 14.514 302.606 14.8271 303.766 15.4533C304.926 16.0796 305.829 16.9729 306.473 18.1332C307.137 19.2936 307.468 20.6474 307.468 22.1945ZM302.633 20.9513C302.633 20.1409 302.357 19.4962 301.804 19.0173C301.252 18.5384 300.561 18.299 299.732 18.299C298.94 18.299 298.268 18.5292 297.715 18.9897C297.181 19.4502 296.85 20.104 296.721 20.9513H302.633ZM316.441 30.3724C315.097 30.3724 313.899 30.1422 312.85 29.6817C311.8 29.2212 310.971 28.595 310.363 27.803C309.755 26.9926 309.415 26.0901 309.341 25.0955H314.01C314.065 25.6296 314.314 26.0624 314.756 26.394C315.198 26.7255 315.741 26.8913 316.386 26.8913C316.975 26.8913 317.427 26.7808 317.74 26.5597C318.071 26.3203 318.237 26.0164 318.237 25.648C318.237 25.206 318.007 24.8836 317.546 24.681C317.086 24.46 316.34 24.2206 315.308 23.9627C314.203 23.7049 313.282 23.4378 312.546 23.1615C311.809 22.8668 311.174 22.4156 310.639 21.8077C310.105 21.1815 309.838 20.3435 309.838 19.2936C309.838 18.4095 310.078 17.6083 310.556 16.89C311.054 16.1532 311.772 15.573 312.711 15.1494C313.669 14.7258 314.802 14.514 316.11 14.514C318.044 14.514 319.563 14.9929 320.668 15.9506C321.792 16.9084 322.436 18.1793 322.602 19.7633H318.237C318.163 19.2291 317.924 18.8055 317.519 18.4924C317.132 18.1793 316.616 18.0227 315.972 18.0227C315.419 18.0227 314.995 18.1332 314.701 18.3543C314.406 18.5569 314.259 18.8423 314.259 19.2107C314.259 19.6528 314.489 19.9843 314.949 20.2053C315.428 20.4263 316.165 20.6474 317.16 20.8684C318.302 21.1631 319.232 21.4578 319.95 21.7525C320.668 22.0288 321.295 22.4892 321.829 23.1339C322.381 23.7601 322.667 24.6074 322.685 25.6756C322.685 26.5782 322.427 27.3886 321.912 28.1069C321.414 28.8068 320.687 29.3594 319.729 29.7646C318.79 30.1698 317.694 30.3724 316.441 30.3724Z" fill="white"/>
</svg>
