<svg width="206" height="27" viewBox="0 0 206 27" fill="none" xmlns="http://www.w3.org/2000/svg">
<path d="M0 0L22.4253 13.0481L0 26.0962V0Z" fill="#FF6F00"/>
<path d="M21.7784 0L44.2037 13.0481L21.7784 26.0962V0Z" fill="#FF6F00"/>
<path d="M78.166 19.0481H75.1607L70.1343 11.4381V19.0481H67.129V6.71046H70.1343L75.1607 14.3556V6.71046H78.166V19.0481ZM97.4551 6.71046L94.2389 19.0481H90.6008L88.6324 10.9285L86.5937 19.0481H82.9557L79.8274 6.71046H83.0436L84.8187 15.6913L87.0155 6.71046H90.3196L92.4286 15.6913L94.2213 6.71046H97.4551ZM107.127 6.71046V9.11823H102.101V11.7193H105.862V14.0568H102.101V19.0481H99.0954V6.71046H107.127ZM117.161 19.1711C116.259 19.1711 115.451 19.0247 114.736 18.7317C114.021 18.4388 113.447 18.0053 113.014 17.4312C112.592 16.8571 112.369 16.1658 112.346 15.3574H115.545C115.591 15.8143 115.75 16.1658 116.019 16.4118C116.289 16.6462 116.64 16.7633 117.074 16.7633C117.519 16.7633 117.87 16.6638 118.128 16.4646C118.386 16.2537 118.515 15.9666 118.515 15.6034C118.515 15.2988 118.409 15.0469 118.198 14.8477C117.999 14.6485 117.747 14.4845 117.443 14.3556C117.15 14.2267 116.728 14.0802 116.177 13.9162C115.381 13.6702 114.73 13.4241 114.226 13.1781C113.723 12.932 113.289 12.5688 112.926 12.0884C112.563 11.608 112.381 10.9812 112.381 10.2079C112.381 9.05965 112.797 8.16333 113.629 7.51891C114.461 6.86278 115.545 6.53471 116.88 6.53471C118.239 6.53471 119.335 6.86278 120.167 7.51891C120.999 8.16333 121.444 9.06551 121.502 10.2255H118.251C118.228 9.82709 118.081 9.5166 117.812 9.29398C117.542 9.05965 117.197 8.94248 116.775 8.94248C116.412 8.94248 116.119 9.04208 115.896 9.24126C115.673 9.42872 115.562 9.70407 115.562 10.0673C115.562 10.4656 115.75 10.7761 116.125 10.9988C116.499 11.2214 117.085 11.4616 117.882 11.7193C118.679 11.9888 119.323 12.2466 119.815 12.4926C120.319 12.7387 120.753 13.096 121.116 13.5647C121.479 14.0334 121.661 14.6368 121.661 15.3749C121.661 16.0779 121.479 16.7165 121.116 17.2906C120.764 17.8647 120.249 18.3217 119.569 18.6614C118.89 19.0012 118.087 19.1711 117.161 19.1711ZM129.109 16.4997V19.0481H127.58C126.49 19.0481 125.641 18.7845 125.032 18.2572C124.422 17.7183 124.118 16.8454 124.118 15.6386V11.7369H122.923V9.24126H124.118V6.85106H127.123V9.24126H129.092V11.7369H127.123V15.6737C127.123 15.9666 127.193 16.1775 127.334 16.3064C127.475 16.4353 127.709 16.4997 128.037 16.4997H129.109ZM133.922 10.8757C134.273 10.3368 134.712 9.91497 135.24 9.61033C135.767 9.29398 136.353 9.13581 136.997 9.13581V12.3169H136.171C135.421 12.3169 134.859 12.4809 134.484 12.809C134.109 13.1253 133.922 13.6877 133.922 14.4962V19.0481H130.916V9.24126H133.922V10.8757ZM137.969 14.1271C137.969 13.1195 138.157 12.2349 138.532 11.4733C138.918 10.7117 139.44 10.1259 140.096 9.71578C140.752 9.3057 141.484 9.10066 142.293 9.10066C142.984 9.10066 143.587 9.24126 144.103 9.52246C144.63 9.80366 145.034 10.1727 145.316 10.6297V9.24126H148.321V19.0481H145.316V17.6597C145.023 18.1166 144.613 18.4857 144.085 18.7669C143.57 19.0481 142.966 19.1887 142.275 19.1887C141.478 19.1887 140.752 18.9837 140.096 18.5736C139.44 18.1518 138.918 17.5601 138.532 16.7985C138.157 16.0252 137.969 15.1347 137.969 14.1271ZM145.316 14.1447C145.316 13.3948 145.105 12.8031 144.683 12.3696C144.273 11.9361 143.769 11.7193 143.171 11.7193C142.574 11.7193 142.064 11.9361 141.642 12.3696C141.232 12.7914 141.027 13.3772 141.027 14.1271C141.027 14.877 141.232 15.4745 141.642 15.9197C142.064 16.3533 142.574 16.57 143.171 16.57C143.769 16.57 144.273 16.3533 144.683 15.9197C145.105 15.4862 145.316 14.8945 145.316 14.1447ZM156.094 16.4997V19.0481H154.565C153.475 19.0481 152.626 18.7845 152.017 18.2572C151.407 17.7183 151.103 16.8454 151.103 15.6386V11.7369H149.908V9.24126H151.103V6.85106H154.108V9.24126H156.077V11.7369H154.108V15.6737C154.108 15.9666 154.178 16.1775 154.319 16.3064C154.46 16.4353 154.694 16.4997 155.022 16.4997H156.094ZM167.146 13.9865C167.146 14.2677 167.128 14.5606 167.093 14.8653H160.291C160.338 15.4745 160.532 15.9432 160.871 16.2712C161.223 16.5876 161.651 16.7458 162.154 16.7458C162.904 16.7458 163.426 16.4294 163.719 15.7967H166.917C166.753 16.4411 166.454 17.0211 166.021 17.5366C165.599 18.0522 165.066 18.4564 164.422 18.7493C163.777 19.0422 163.057 19.1887 162.26 19.1887C161.299 19.1887 160.444 18.9837 159.694 18.5736C158.944 18.1635 158.358 17.5777 157.936 16.8161C157.515 16.0545 157.304 15.164 157.304 14.1447C157.304 13.1253 157.509 12.2349 157.919 11.4733C158.341 10.7117 158.926 10.1259 159.676 9.71578C160.426 9.3057 161.287 9.10066 162.26 9.10066C163.209 9.10066 164.053 9.29984 164.791 9.69821C165.529 10.0966 166.103 10.6648 166.513 11.403C166.935 12.1411 167.146 13.0023 167.146 13.9865ZM164.07 13.1956C164.07 12.6801 163.894 12.27 163.543 11.9654C163.191 11.6607 162.752 11.5084 162.225 11.5084C161.721 11.5084 161.293 11.6549 160.942 11.9478C160.602 12.2407 160.391 12.6567 160.309 13.1956H164.07ZM172.59 9.10066C173.281 9.10066 173.885 9.24126 174.4 9.52246C174.928 9.80366 175.332 10.1727 175.613 10.6297V9.24126H178.618V19.0305C178.618 19.9327 178.437 20.747 178.074 21.4734C177.722 22.2116 177.177 22.7974 176.439 23.2309C175.713 23.6645 174.805 23.8812 173.715 23.8812C172.262 23.8812 171.085 23.5356 170.182 22.8443C169.28 22.1647 168.765 21.2391 168.636 20.0674H171.606C171.7 20.4424 171.922 20.7353 172.274 20.9462C172.625 21.1688 173.059 21.2801 173.574 21.2801C174.195 21.2801 174.687 21.0985 175.051 20.7353C175.426 20.3838 175.613 19.8155 175.613 19.0305V17.6421C175.32 18.099 174.916 18.474 174.4 18.7669C173.885 19.0481 173.281 19.1887 172.59 19.1887C171.782 19.1887 171.049 18.9837 170.393 18.5736C169.737 18.1518 169.216 17.5601 168.829 16.7985C168.454 16.0252 168.267 15.1347 168.267 14.1271C168.267 13.1195 168.454 12.2349 168.829 11.4733C169.216 10.7117 169.737 10.1259 170.393 9.71578C171.049 9.3057 171.782 9.10066 172.59 9.10066ZM175.613 14.1447C175.613 13.3948 175.402 12.8031 174.98 12.3696C174.57 11.9361 174.066 11.7193 173.469 11.7193C172.871 11.7193 172.362 11.9361 171.94 12.3696C171.53 12.7914 171.325 13.3772 171.325 14.1271C171.325 14.877 171.53 15.4745 171.94 15.9197C172.362 16.3533 172.871 16.57 173.469 16.57C174.066 16.57 174.57 16.3533 174.98 15.9197C175.402 15.4862 175.613 14.8945 175.613 14.1447ZM182.437 8.22191C181.91 8.22191 181.476 8.06959 181.137 7.76496C180.809 7.44861 180.645 7.06196 180.645 6.60501C180.645 6.13635 180.809 5.7497 181.137 5.44506C181.476 5.12871 181.91 4.97054 182.437 4.97054C182.953 4.97054 183.375 5.12871 183.703 5.44506C184.042 5.7497 184.212 6.13635 184.212 6.60501C184.212 7.06196 184.042 7.44861 183.703 7.76496C183.375 8.06959 182.953 8.22191 182.437 8.22191ZM183.931 9.24126V19.0481H180.926V9.24126H183.931ZM195.487 13.9865C195.487 14.2677 195.469 14.5606 195.434 14.8653H188.632C188.679 15.4745 188.873 15.9432 189.212 16.2712C189.564 16.5876 189.991 16.7458 190.495 16.7458C191.245 16.7458 191.767 16.4294 192.059 15.7967H195.258C195.094 16.4411 194.795 17.0211 194.362 17.5366C193.94 18.0522 193.407 18.4564 192.762 18.7493C192.118 19.0422 191.397 19.1887 190.601 19.1887C189.64 19.1887 188.785 18.9837 188.035 18.5736C187.285 18.1635 186.699 17.5777 186.277 16.8161C185.856 16.0545 185.645 15.164 185.645 14.1447C185.645 13.1253 185.85 12.2349 186.26 11.4733C186.682 10.7117 187.267 10.1259 188.017 9.71578C188.767 9.3057 189.628 9.10066 190.601 9.10066C191.55 9.10066 192.393 9.29984 193.132 9.69821C193.87 10.0966 194.444 10.6648 194.854 11.403C195.276 12.1411 195.487 13.0023 195.487 13.9865ZM192.411 13.1956C192.411 12.6801 192.235 12.27 191.884 11.9654C191.532 11.6607 191.093 11.5084 190.566 11.5084C190.062 11.5084 189.634 11.6549 189.283 11.9478C188.943 12.2407 188.732 12.6567 188.65 13.1956H192.411ZM201.195 19.1887C200.339 19.1887 199.578 19.0422 198.91 18.7493C198.242 18.4564 197.715 18.058 197.328 17.5542C196.942 17.0387 196.725 16.4646 196.678 15.8319H199.648C199.683 16.1717 199.841 16.447 200.123 16.6579C200.404 16.8688 200.749 16.9742 201.16 16.9742C201.535 16.9742 201.822 16.9039 202.021 16.7633C202.232 16.611 202.337 16.4177 202.337 16.1834C202.337 15.9022 202.191 15.6971 201.898 15.5683C201.605 15.4277 201.13 15.2753 200.474 15.1113C199.771 14.9473 199.185 14.7774 198.717 14.6016C198.248 14.4142 197.844 14.1271 197.504 13.7405C197.164 13.3421 196.994 12.809 196.994 12.1411C196.994 11.5787 197.147 11.0691 197.451 10.6121C197.768 10.1434 198.225 9.77437 198.822 9.50488C199.431 9.2354 200.152 9.10066 200.984 9.10066C202.214 9.10066 203.181 9.40529 203.884 10.0146C204.598 10.6238 205.008 11.4323 205.114 12.4399H202.337C202.29 12.1001 202.138 11.8306 201.88 11.6315C201.634 11.4323 201.306 11.3327 200.896 11.3327C200.544 11.3327 200.275 11.403 200.087 11.5436C199.9 11.6725 199.806 11.8541 199.806 12.0884C199.806 12.3696 199.953 12.5805 200.246 12.7211C200.55 12.8617 201.019 13.0023 201.652 13.1429C202.378 13.3304 202.97 13.5178 203.427 13.7053C203.884 13.8811 204.282 14.174 204.622 14.5841C204.973 14.9824 205.155 15.5214 205.167 16.2009C205.167 16.7751 205.003 17.2906 204.675 17.7475C204.358 18.1928 203.895 18.5443 203.286 18.802C202.689 19.0598 201.991 19.1887 201.195 19.1887Z" fill="#FF6F00"/>
</svg>
