<svg xmlns="http://www.w3.org/2000/svg" width="61" height="60" viewBox="0 0 61 60" fill="none">
<path d="M30.9199 29.9375C28.1699 29.9375 25.9199 29.0625 24.1699 27.3125C22.4199 25.5625 21.5449 23.3125 21.5449 20.5625C21.5449 17.8125 22.4199 15.5625 24.1699 13.8125C25.9199 12.0625 28.1699 11.1875 30.9199 11.1875C33.6699 11.1875 35.9199 12.0625 37.6699 13.8125C39.4199 15.5625 40.2949 17.8125 40.2949 20.5625C40.2949 23.3125 39.4199 25.5625 37.6699 27.3125C35.9199 29.0625 33.6699 29.9375 30.9199 29.9375ZM10.9199 50V44.125C10.9199 42.5417 11.3158 41.1875 12.1074 40.0625C12.8991 38.9375 13.9199 38.0833 15.1699 37.5C17.9616 36.25 20.6387 35.3125 23.2012 34.6875C25.7637 34.0625 28.3366 33.75 30.9199 33.75C33.5033 33.75 36.0658 34.0729 38.6074 34.7188C41.1491 35.3646 43.8141 36.2957 46.6025 37.5121C47.9067 38.1007 48.9523 38.9542 49.7394 40.0725C50.5264 41.1908 50.9199 42.5417 50.9199 44.125V50H10.9199ZM14.6699 46.25H47.1699V44.125C47.1699 43.4583 46.972 42.8229 46.5762 42.2188C46.1803 41.6146 45.6908 41.1667 45.1074 40.875C42.4408 39.5833 40.0033 38.6979 37.7949 38.2188C35.5866 37.7396 33.2949 37.5 30.9199 37.5C28.5449 37.5 26.2324 37.7396 23.9824 38.2188C21.7324 38.6979 19.2949 39.5833 16.6699 40.875C16.0866 41.1667 15.6074 41.6146 15.2324 42.2188C14.8574 42.8229 14.6699 43.4583 14.6699 44.125V46.25ZM30.9199 26.1875C32.5449 26.1875 33.8887 25.6562 34.9512 24.5938C36.0137 23.5312 36.5449 22.1875 36.5449 20.5625C36.5449 18.9375 36.0137 17.5938 34.9512 16.5312C33.8887 15.4688 32.5449 14.9375 30.9199 14.9375C29.2949 14.9375 27.9512 15.4688 26.8887 16.5312C25.8262 17.5938 25.2949 18.9375 25.2949 20.5625C25.2949 22.1875 25.8262 23.5312 26.8887 24.5938C27.9512 25.6562 29.2949 26.1875 30.9199 26.1875Z" fill="url(#paint0_angular_986_829)"/>
<defs>
<radialGradient id="paint0_angular_986_829" cx="0" cy="0" r="1" gradientUnits="userSpaceOnUse" gradientTransform="translate(30.9199 30.5938) rotate(90) scale(19.4062 20)">
<stop stop-color="#28AFB0"/>
<stop offset="1" stop-color="#185767"/>
</radialGradient>
</defs>
</svg>