<svg width="75" height="76" viewBox="0 0 75 76" fill="none" xmlns="http://www.w3.org/2000/svg">
<g id="person">
<path id="Vector" d="M37.5 37.9219C34.0625 37.9219 31.25 36.8281 29.0625 34.6406C26.875 32.4531 25.7812 29.6406 25.7812 26.2031C25.7812 22.7656 26.875 19.9531 29.0625 17.7656C31.25 15.5781 34.0625 14.4844 37.5 14.4844C40.9375 14.4844 43.75 15.5781 45.9375 17.7656C48.125 19.9531 49.2188 22.7656 49.2188 26.2031C49.2188 29.6406 48.125 32.4531 45.9375 34.6406C43.75 36.8281 40.9375 37.9219 37.5 37.9219ZM12.5 63V55.6562C12.5 53.6771 12.9948 51.9844 13.9844 50.5781C14.974 49.1719 16.25 48.1042 17.8125 47.375C21.3021 45.8125 24.6484 44.6406 27.8516 43.8594C31.0547 43.0781 34.2708 42.6875 37.5 42.6875C40.7292 42.6875 43.9323 43.0911 47.1094 43.8984C50.2865 44.7057 53.6177 45.8696 57.1032 47.3902C58.7335 48.1259 60.0405 49.1927 61.0243 50.5906C62.0081 51.9885 62.5 53.6771 62.5 55.6562V63H12.5ZM17.1875 58.3125H57.8125V55.6562C57.8125 54.8229 57.5651 54.0286 57.0703 53.2734C56.5755 52.5182 55.9635 51.9583 55.2344 51.5938C51.901 49.9792 48.8542 48.8724 46.0938 48.2734C43.3333 47.6745 40.4688 47.375 37.5 47.375C34.5312 47.375 31.6406 47.6745 28.8281 48.2734C26.0156 48.8724 22.9688 49.9792 19.6875 51.5938C18.9583 51.9583 18.3594 52.5182 17.8906 53.2734C17.4219 54.0286 17.1875 54.8229 17.1875 55.6562V58.3125ZM37.5 33.2344C39.5312 33.2344 41.2109 32.5703 42.5391 31.2422C43.8672 29.9141 44.5312 28.2344 44.5312 26.2031C44.5312 24.1719 43.8672 22.4922 42.5391 21.1641C41.2109 19.8359 39.5312 19.1719 37.5 19.1719C35.4688 19.1719 33.7891 19.8359 32.4609 21.1641C31.1328 22.4922 30.4688 24.1719 30.4688 26.2031C30.4688 28.2344 31.1328 29.9141 32.4609 31.2422C33.7891 32.5703 35.4688 33.2344 37.5 33.2344Z" fill="white"/>
</g>
</svg>
