<svg xmlns="http://www.w3.org/2000/svg" width="61" height="61" viewBox="0 0 61 61" fill="none">
  <path d="M12.1699 9.25V27.5625V27.375V51.75V9.25ZM18.3574 34.25H29.9199C30.3783 33.5417 30.8783 32.875 31.4199 32.25C31.9616 31.625 32.5658 31.0417 33.2324 30.5H18.3574V34.25ZM18.3574 44.875H28.1074C27.9824 44.25 27.8887 43.625 27.8262 43C27.7637 42.375 27.7533 41.75 27.7949 41.125H18.3574V44.875ZM12.1699 55.5C11.1699 55.5 10.2949 55.125 9.54492 54.375C8.79492 53.625 8.41992 52.75 8.41992 51.75V9.25C8.41992 8.25 8.79492 7.375 9.54492 6.625C10.2949 5.875 11.1699 5.5 12.1699 5.5H34.7324L48.4199 19.1875V28.8125C47.8366 28.5208 47.2324 28.2708 46.6074 28.0625C45.9824 27.8542 45.3366 27.6875 44.6699 27.5625V20.875H32.8574V9.25H12.1699V51.75H31.8574C32.6908 52.625 33.6178 53.375 34.6387 54C35.6595 54.625 36.7741 55.125 37.9824 55.5H12.1699ZM42.1699 48.625C44.1283 48.625 45.7637 47.9688 47.0762 46.6562C48.3887 45.3438 49.0449 43.7083 49.0449 41.75C49.0449 39.7917 48.3887 38.1562 47.0762 36.8438C45.7637 35.5312 44.1283 34.875 42.1699 34.875C40.2116 34.875 38.5762 35.5312 37.2637 36.8438C35.9512 38.1562 35.2949 39.7917 35.2949 41.75C35.2949 43.7083 35.9512 45.3438 37.2637 46.6562C38.5762 47.9688 40.2116 48.625 42.1699 48.625ZM54.9199 57.125L48.2222 50.4375C47.354 51.0208 46.4095 51.4896 45.3887 51.8438C44.3678 52.1979 43.2949 52.375 42.1699 52.375C39.2185 52.375 36.7099 51.3413 34.6439 49.2739C32.5779 47.2065 31.5449 44.6961 31.5449 41.7426C31.5449 38.7892 32.5786 36.2812 34.646 34.2188C36.7134 32.1562 39.2238 31.125 42.1773 31.125C45.1307 31.125 47.6387 32.158 49.7012 34.2239C51.7637 36.2899 52.7949 38.7986 52.7949 41.75C52.7949 42.875 52.6178 43.9479 52.2637 44.9688C51.9095 45.9896 51.4408 46.9341 50.8574 47.8023L57.5449 54.5L54.9199 57.125Z" fill="url(#paint0_angular_987_953)"/>
  <defs>
    <radialGradient id="paint0_angular_987_953" cx="0" cy="0" r="1" gradientUnits="userSpaceOnUse" gradientTransform="translate(32.9824 31.3125) rotate(90) scale(25.8125 24.5625)">
      <stop stop-color="#28AFB0"/>
      <stop offset="1" stop-color="#185767"/>
    </radialGradient>
  </defs>
</svg>