<svg width="75" height="76" viewBox="0 0 75 76" fill="none" xmlns="http://www.w3.org/2000/svg">
<g id="research">
<path id="Vector" d="M14.0625 11.4375V34.3281V34.0938V64.5625V11.4375ZM21.7969 42.6875H36.25C36.8229 41.8021 37.4479 40.9688 38.125 40.1875C38.8021 39.4062 39.5573 38.6771 40.3906 38H21.7969V42.6875ZM21.7969 55.9688H33.9844C33.8281 55.1875 33.7109 54.4062 33.6328 53.625C33.5547 52.8438 33.5417 52.0625 33.5938 51.2812H21.7969V55.9688ZM14.0625 69.25C12.8125 69.25 11.7188 68.7812 10.7812 67.8438C9.84375 66.9062 9.375 65.8125 9.375 64.5625V11.4375C9.375 10.1875 9.84375 9.09375 10.7812 8.15625C11.7188 7.21875 12.8125 6.75 14.0625 6.75H42.2656L59.375 23.8594V35.8906C58.6458 35.526 57.8906 35.2135 57.1094 34.9531C56.3281 34.6927 55.5208 34.4844 54.6875 34.3281V25.9688H39.9219V11.4375H14.0625V64.5625H38.6719C39.7135 65.6562 40.8724 66.5938 42.1484 67.375C43.4245 68.1562 44.8177 68.7812 46.3281 69.25H14.0625ZM51.5625 60.6562C54.0104 60.6562 56.0547 59.8359 57.6953 58.1953C59.3359 56.5547 60.1562 54.5104 60.1562 52.0625C60.1562 49.6146 59.3359 47.5703 57.6953 45.9297C56.0547 44.2891 54.0104 43.4688 51.5625 43.4688C49.1146 43.4688 47.0703 44.2891 45.4297 45.9297C43.7891 47.5703 42.9688 49.6146 42.9688 52.0625C42.9688 54.5104 43.7891 56.5547 45.4297 58.1953C47.0703 59.8359 49.1146 60.6562 51.5625 60.6562ZM67.5 71.2812L59.1279 62.9219C58.0426 63.651 56.862 64.237 55.5859 64.6797C54.3099 65.1224 52.9688 65.3438 51.5625 65.3438C47.8733 65.3438 44.7374 64.0516 42.1549 61.4673C39.5725 58.8831 38.2812 55.7451 38.2812 52.0533C38.2812 48.3615 39.5734 45.2266 42.1577 42.6484C44.7419 40.0703 47.8799 38.7812 51.5717 38.7812C55.2635 38.7812 58.3984 40.0725 60.9766 42.6549C63.5547 45.2374 64.8438 48.3733 64.8438 52.0625C64.8438 53.4688 64.6224 54.8099 64.1797 56.0859C63.737 57.362 63.151 58.5426 62.4219 59.6279L70.7812 68L67.5 71.2812Z" fill="white"/>
</g>
</svg>
