<svg width="300" height="54" viewBox="0 0 300 54" fill="none" xmlns="http://www.w3.org/2000/svg">
<path d="M13.9913 37.3594C12.7647 41.4886 139.59 44.8996 162.061 44.6556C184.533 44.4116 224.461 45.3464 246.343 42.9105C262.613 41.0995 265.897 39.7984 268.103 38.4691C270.095 36.8634 270.769 34.9358 271.519 33.4724C272.268 32.0091 272.236 26.5286 270.751 24.7528C267.252 20.5721 262.912 17.1299 244.218 12.2328C234.15 9.59573 211.212 9.06536 182.906 6.55339C154.6 4.04141 118.487 3.28618 90.2609 1.9054C62.0348 0.524633 42.1015 0.705351 30.8813 2.57004C9.71141 6.08828 1.26155 10.5237 1.03897 16.76C0.959548 18.9853 0.942957 19.4473 1.58064 22.2383C2.30786 25.4212 5.6535 28.2073 16.7139 32.0978C27.7742 35.9884 44.1252 40.2795 60.7604 43.6524C77.3956 47.0252 93.8195 49.3499 109.815 50.6873C125.81 52.0247 190.287 56.7744 246.202 46.86" stroke="#FF6F00" stroke-width="2.5" stroke-linecap="round"/>
</svg>
