<svg xmlns="http://www.w3.org/2000/svg" width="114" height="35" viewBox="0 0 114 35" fill="none">
<path d="M82.2683 2.74619C77.8212 3.0424 68.9769 0.101063 51.2733 1.28032C42.6518 1.8546 34.1806 4.33398 26.7917 6.44143C5.77639 12.4354 4.43934 13.5306 1.60034 17.5838C0.817953 18.7008 0.945351 20.5147 1.17697 21.9598C1.62639 24.7638 5.87227 27.2957 11.9475 29.7879C17.337 31.9989 29.0459 33.1709 49.7376 33.7271C61.4545 34.0421 75.6254 32.6605 86.349 31.1482C104.072 28.6489 111.736 24.4614 112.144 22.0258C112.778 18.2527 102.954 14.426 88.7598 10.0614C80.443 7.504 69.3481 7.00178 60.3527 6.45477C44.6656 6.0343 35.0551 7.30314 30.555 9.53254" stroke="#43BCCD" stroke-width="2.5" stroke-linecap="round"/>
</svg>