<svg xmlns="http://www.w3.org/2000/svg" width="61" height="61" viewBox="0 0 61 61" fill="none">
<path d="M19.625 27.8125C20.3333 27.8125 20.9271 27.5729 21.4062 27.0938C21.8854 26.6146 22.125 26.0208 22.125 25.3125C22.125 24.6042 21.8854 24.0104 21.4062 23.5312C20.9271 23.0521 20.3333 22.8125 19.625 22.8125C18.9167 22.8125 18.3229 23.0521 17.8438 23.5312C17.3646 24.0104 17.125 24.6042 17.125 25.3125C17.125 26.0208 17.3646 26.6146 17.8438 27.0938C18.3229 27.5729 18.9167 27.8125 19.625 27.8125ZM30.6875 27.8125C31.3958 27.8125 31.9896 27.5729 32.4688 27.0938C32.9479 26.6146 33.1875 26.0208 33.1875 25.3125C33.1875 24.6042 32.9479 24.0104 32.4688 23.5312C31.9896 23.0521 31.3958 22.8125 30.6875 22.8125C29.9792 22.8125 29.3854 23.0521 28.9062 23.5312C28.4271 24.0104 28.1875 24.6042 28.1875 25.3125C28.1875 26.0208 28.4271 26.6146 28.9062 27.0938C29.3854 27.5729 29.9792 27.8125 30.6875 27.8125ZM41.3125 27.8125C42.0208 27.8125 42.6146 27.5729 43.0938 27.0938C43.5729 26.6146 43.8125 26.0208 43.8125 25.3125C43.8125 24.6042 43.5729 24.0104 43.0938 23.5312C42.6146 23.0521 42.0208 22.8125 41.3125 22.8125C40.6042 22.8125 40.0104 23.0521 39.5312 23.5312C39.0521 24.0104 38.8125 24.6042 38.8125 25.3125C38.8125 26.0208 39.0521 26.6146 39.5312 27.0938C40.0104 27.5729 40.6042 27.8125 41.3125 27.8125ZM5.5 55.5V9.25C5.5 8.25 5.875 7.375 6.625 6.625C7.375 5.875 8.25 5.5 9.25 5.5H51.75C52.75 5.5 53.625 5.875 54.375 6.625C55.125 7.375 55.5 8.25 55.5 9.25V41.75C55.5 42.75 55.125 43.625 54.375 44.375C53.625 45.125 52.75 45.5 51.75 45.5H15.5L5.5 55.5ZM13.875 41.75H51.75V9.25H9.25V46.75L13.875 41.75Z" fill="url(#paint0_angular_987_905)"/>
<defs>
<radialGradient id="paint0_angular_987_905" cx="0" cy="0" r="1" gradientUnits="userSpaceOnUse" gradientTransform="translate(30.5 30.5) rotate(90) scale(25)">
<stop stop-color="#28AFB0"/>
<stop offset="1" stop-color="#185767"/>
</radialGradient>
</defs>
</svg>