<svg width="75" height="76" viewBox="0 0 75 76" fill="none" xmlns="http://www.w3.org/2000/svg">
<g id="sms_FILL">
<path id="Vector" d="M23.9062 34.6406C24.7917 34.6406 25.5339 34.3411 26.1328 33.7422C26.7318 33.1432 27.0312 32.401 27.0312 31.5156C27.0312 30.6302 26.7318 29.888 26.1328 29.2891C25.5339 28.6901 24.7917 28.3906 23.9062 28.3906C23.0208 28.3906 22.2786 28.6901 21.6797 29.2891C21.0807 29.888 20.7812 30.6302 20.7812 31.5156C20.7812 32.401 21.0807 33.1432 21.6797 33.7422C22.2786 34.3411 23.0208 34.6406 23.9062 34.6406ZM37.7344 34.6406C38.6198 34.6406 39.362 34.3411 39.9609 33.7422C40.5599 33.1432 40.8594 32.401 40.8594 31.5156C40.8594 30.6302 40.5599 29.888 39.9609 29.2891C39.362 28.6901 38.6198 28.3906 37.7344 28.3906C36.849 28.3906 36.1068 28.6901 35.5078 29.2891C34.9089 29.888 34.6094 30.6302 34.6094 31.5156C34.6094 32.401 34.9089 33.1432 35.5078 33.7422C36.1068 34.3411 36.849 34.6406 37.7344 34.6406ZM51.0156 34.6406C51.901 34.6406 52.6432 34.3411 53.2422 33.7422C53.8411 33.1432 54.1406 32.401 54.1406 31.5156C54.1406 30.6302 53.8411 29.888 53.2422 29.2891C52.6432 28.6901 51.901 28.3906 51.0156 28.3906C50.1302 28.3906 49.388 28.6901 48.7891 29.2891C48.1901 29.888 47.8906 30.6302 47.8906 31.5156C47.8906 32.401 48.1901 33.1432 48.7891 33.7422C49.388 34.3411 50.1302 34.6406 51.0156 34.6406ZM6.25 69.25V11.4375C6.25 10.1875 6.71875 9.09375 7.65625 8.15625C8.59375 7.21875 9.6875 6.75 10.9375 6.75H64.0625C65.3125 6.75 66.4062 7.21875 67.3438 8.15625C68.2812 9.09375 68.75 10.1875 68.75 11.4375V52.0625C68.75 53.3125 68.2812 54.4062 67.3438 55.3438C66.4062 56.2812 65.3125 56.75 64.0625 56.75H18.75L6.25 69.25ZM16.7188 52.0625H64.0625V11.4375H10.9375V58.3125L16.7188 52.0625Z" fill="white"/>
</g>
</svg>
