<svg width="40" height="34" viewBox="0 0 40 34" fill="none" xmlns="http://www.w3.org/2000/svg">
<path d="M37.1084 3.1464C35.6242 4.19065 33.981 4.98932 32.2419 5.51168C31.3085 4.44114 30.068 3.68237 28.6881 3.33799C27.3083 2.99361 25.8557 3.08023 24.5268 3.58615C23.198 4.09207 22.0569 4.99287 21.2581 6.16671C20.4592 7.34056 20.041 8.73082 20.0601 10.1495V11.6954C17.3364 11.7658 14.6376 11.1633 12.2039 9.94146C9.77021 8.7196 7.67726 6.91636 6.11142 4.69233C6.11142 4.69233 -0.0879793 18.6057 13.8607 24.7894C10.6688 26.9506 6.86644 28.0342 3.01172 27.8813C16.9604 35.6109 34.0087 27.8813 34.0087 10.1031C34.0073 9.67248 33.9658 9.24293 33.8847 8.81997C35.4665 7.26398 36.5827 5.29944 37.1084 3.1464Z" stroke="white" stroke-width="5" stroke-linecap="round" stroke-linejoin="round"/>
</svg>
