<svg width="75" height="76" viewBox="0 0 75 76" fill="none" xmlns="http://www.w3.org/2000/svg">
<g id="vibration" clip-path="url(#clip0_1300_1719)">
<path id="Vector" d="M0 46.9844V29.0156H4.6875V46.9844H0ZM9.375 53.8594V22.1406H14.0625V53.8594H9.375ZM70.3125 46.9844V29.0156H75V46.9844H70.3125ZM60.9375 53.8594V22.1406H65.625V53.8594H60.9375ZM23.4375 66.125C22.1484 66.125 21.0449 65.666 20.127 64.748C19.209 63.8301 18.75 62.7266 18.75 61.4375V14.5625C18.75 13.2734 19.209 12.1699 20.127 11.252C21.0449 10.334 22.1484 9.875 23.4375 9.875H51.5625C52.8516 9.875 53.9551 10.334 54.873 11.252C55.791 12.1699 56.25 13.2734 56.25 14.5625V61.4375C56.25 62.7266 55.791 63.8301 54.873 64.748C53.9551 65.666 52.8516 66.125 51.5625 66.125H23.4375ZM23.4375 61.4375H51.5625V14.5625H23.4375V61.4375Z" fill="white"/>
</g>
<defs>
<clipPath id="clip0_1300_1719">
<rect width="75" height="75" fill="white" transform="translate(0 0.5)"/>
</clipPath>
</defs>
</svg>
